<?xml version="1.0" encoding="utf-8"?>
<!-- Generator: Adobe Illustrator 19.2.0, SVG Export Plug-In . SVG Version: 6.00 Build 0)  -->
<svg version="1.1" id="Layer_1" xmlns="http://www.w3.org/2000/svg" xmlns:xlink="http://www.w3.org/1999/xlink" x="0px" y="0px"
	 viewBox="0 0 225.6 33" style="enable-background:new 0 0 225.6 33;" xml:space="preserve">
<style type="text/css">
	.st0{fill:#FFFFFF;}
	.st1{fill:none;}
	.st2{font-family:'Langdon';}
	.st3{font-size:34px;}
	.st4{letter-spacing:2.4;}
</style>
<g>
	<g>
		<g id="Icons_3_">
			<g>
				<path class="st0" d="M18.2,20h-6.8v-3.3l0.4-0.1c0.3-0.1,0.4-0.4,0.3-0.6L6.8,2.7C6.5,2.1,6,1.6,5.3,1.3C4.6,1,3.8,1,3.1,1.3
					S1.9,2.1,1.7,2.7s-0.2,1.4,0.1,2l6.9,12.5c0.1,0.2,0.3,0.3,0.5,0.3V20H7.4c-0.5,0-0.9,0.4-0.9,0.9v5.7c0,0.5,0.4,0.9,0.9,0.9H14
					c0.5,0,0.9-0.4,0.9-0.9V23h3.3c0.7,0,1.2,0.5,1.2,1.1v1c0,0.5,0.4,0.9,0.9,0.9h1.4c0.5,0,0.9-0.4,0.9-0.9v-1
					C22.7,21.9,20.7,20,18.2,20z"/>
				<path class="st0" d="M21.3,27c-0.7,0-1.3,2.6-1.3,3.2c0,0.7,0.6,1.2,1.3,1.2c0.7,0,1.3-0.5,1.3-1.2C22.6,29.5,22,27,21.3,27z"/>
			</g>
		</g>
	</g>
</g>
<rect x="25.9" y="3.1" class="st1" width="199.8" height="26.4"/>
<text transform="matrix(0.831 0 0 1 26.4148 26.8698)" class="st0 st2 st3 st4">Taproom Index</text>
</svg>
